<svg width="24" height="24" viewBox="0 0 24 24" fill="none" xmlns="http://www.w3.org/2000/svg">
<path fill-rule="evenodd" clip-rule="evenodd" d="M16 3.5V5.5C16 5.77614 15.7761 6 15.5 6H8.5C8.22386 6 8 5.77614 8 5.5V3.5C8 3.22386 8.22386 3 8.5 3H15.5C15.7761 3 16 3.22386 16 3.5Z" stroke="black" stroke-width="2" stroke-linecap="round" stroke-linejoin="round"/>
<path d="M16 4H18.9669C20.0715 4 20.9669 4.89543 20.9669 6V19C20.9669 20.1046 20.0715 21 18.9669 21H5C3.89543 21 3 20.1046 3 19V6C3 4.89543 3.89543 4 5 4H8V4" stroke="black" stroke-width="2" stroke-linecap="round" stroke-linejoin="round"/>
<path d="M9 11H15" stroke="black" stroke-width="2" stroke-linecap="round" stroke-linejoin="round"/>
<path d="M9 15H12" stroke="black" stroke-width="2" stroke-linecap="round" stroke-linejoin="round"/>
</svg>
